<svg xmlns="http://www.w3.org/2000/svg" viewBox="0 0 90.8 78.5" preserveAspectRatio="none"><path class="st0" d="M325.55,87.34c0,34.54-27.71,62.55-61.89,62.55s-61.89-28-61.89-62.55S229.48,24.8,263.66,24.8,325.55,52.8,325.55,87.34Zm-220.1,96.09c-34.18,0-61.89,28-61.89,62.55s27.71,62.55,61.89,62.55,61.89-28,61.89-62.55S139.63,183.43,105.45,183.43ZM259,235.18c-34.18,0-61.89,28-61.89,62.55s27.71,62.55,61.89,62.55,61.89-28,61.89-62.55S293.23,235.18,259,235.18Zm153.6-51.74c-34.18,0-61.89,28-61.89,62.55s27.71,62.55,61.89,62.55,61.89-28,61.89-62.55S446.83,183.43,412.64,183.43ZM213,127.14l-66,80.5m116.59-57.75v85.29m42.76-104.42,64,64.68" transform="scale(0.15, 0.15)"/></svg>
